# xmcd
#
# Track frame offsets: 
#        150
#        22675
#        42520
#        67130
#        84983
#        110075
#        134395
#        155835
#        179628
#        200990
#
# Disc length: 2919 seconds
#
# Revision: 0
# Processed by: cddbd v1.5.2PL0 Copyright (c) Steve Scherf et al.
# Submitted via: ExactAudioCopy v1.0b3
#
DISCID=950b650a
DTITLE=Various Artist - Trong Tam Mat Doi
DYEAR=1991
DGENRE=
TTITLE0=Tuan Vu - Trong tam mat doi
TTITLE1=Huong Lan - Xin tra toi ve
TTITLE2=Thanh Tuyen - Do ai
TTITLE3=Giao Linh - Mong uoc
TTITLE4=Phuong Mai - Qua con me
TTITLE5=Tuan Vu - Ga chieu pho nho
TTITLE6=Huong Lan - Mua ben song cua
TTITLE7=Thanh Tuyen - Bien man
TTITLE8=Giao Linh - Dep long nguoi yeu
TTITLE9=Phuong Mai - Tinh nghia doi ta
EXTD=
EXTT0=
EXTT1=
EXTT2=
EXTT3=
EXTT4=
EXTT5=
EXTT6=
EXTT7=
EXTT8=
EXTT9=
PLAYORDER=
